<svg width="340" height="340" xmlns="http://www.w3.org/2000/svg" xmlns:xlink="http://www.w3.org/1999/xlink" xml:space="preserve" overflow="hidden"><g transform="translate(-770 -124)"><g><g><g><g><path d="M771 124 1110 124 1110 463 771 463Z" fill="#ED7100" fill-rule="evenodd" fill-opacity="1"/><path d="M1059.15 289.282 1010.98 289.282 1034.62 265.579 1028.67 259.614 996.03 292.344 1028.67 325.07 1034.62 319.106 1013.29 297.718 1059.15 297.718 1059.15 289.282ZM847.512 265.579 871.153 289.282 826.088 289.282 826.088 297.718 868.843 297.718 847.512 319.106 853.464 325.07 886.099 292.344 853.464 259.614 847.512 265.579ZM913.172 331.465 976.272 331.465 976.272 268.19 913.172 268.19 913.172 331.465ZM984.045 263.971 993.098 263.971 993.098 272.408 984.685 272.408 984.685 285.063 993.098 285.063 993.098 293.5 984.685 293.5 984.685 306.155 993.098 306.155 993.098 314.592 984.685 314.592 984.685 327.247 993.098 327.247 993.098 335.683 984.045 335.683C983.334 337.27 982.064 338.548 980.478 339.265L980.478 348.339 972.065 348.339 972.065 339.902 959.445 339.902 959.445 348.339 951.032 348.339 951.032 339.902 938.412 339.902 938.412 348.339 929.999 348.339 929.999 339.902 917.379 339.902 917.379 348.339 908.966 348.339 908.966 339.265C907.38 338.548 906.11 337.27 905.394 335.683L896.346 335.683 896.346 327.247 904.759 327.247 904.759 314.592 896.346 314.592 896.346 306.155 904.759 306.155 904.759 293.5 896.346 293.5 896.346 285.063 904.759 285.063 904.759 272.408 896.346 272.408 896.346 263.971 905.394 263.971C906.11 262.385 907.38 261.107 908.966 260.39L908.966 251.317 917.379 251.317 917.379 259.753 929.999 259.753 929.999 251.317 938.412 251.317 938.412 259.753 951.032 259.753 951.032 251.317 959.445 251.317 959.445 259.753 972.065 259.753 972.065 251.317 980.478 251.317 980.478 260.39C982.064 261.107 983.334 262.385 984.045 263.971ZM946.825 396.002 946.825 352.557 938.412 352.557 938.412 396.002 915.928 373.455 909.98 379.42 942.619 412.15 975.258 379.42 969.31 373.455 946.825 396.002ZM915.928 213.545 909.98 207.58 942.619 174.85 975.258 207.58 969.31 213.545 946.825 190.998 946.825 238.146 938.412 238.146 938.412 190.998 915.928 213.545Z" fill="#FFFFFF" fill-rule="evenodd" fill-opacity="1"/></g></g></g></g></g></svg>