<svg width="348" height="348" xmlns="http://www.w3.org/2000/svg" xmlns:xlink="http://www.w3.org/1999/xlink" xml:space="preserve" overflow="hidden"><g transform="translate(-954 -97)"><g><g><g><g><path d="M955 98 1302 98 1302 445 955 445Z" fill="#ED7100" fill-rule="evenodd" fill-opacity="1"/><path d="M1072.11 327.888 1180.55 327.888 1180.55 219.45 1072.11 219.45 1072.11 327.888ZM1189.22 219.45 1206.57 219.45 1206.57 228.125 1189.22 228.125 1189.22 245.475 1206.57 245.475 1206.57 254.15 1189.22 254.15 1189.22 267.163 1206.57 267.163 1206.57 275.837 1189.22 275.837 1189.22 293.188 1206.57 293.188 1206.57 301.863 1189.22 301.863 1189.22 319.212 1206.57 319.212 1206.57 327.888 1189.22 327.888 1189.22 328.477C1189.22 332.936 1185.6 336.562 1181.14 336.562L1180.55 336.562 1180.55 353.913 1171.88 353.913 1171.88 336.562 1154.53 336.562 1154.53 353.913 1145.85 353.913 1145.85 336.562 1132.84 336.562 1132.84 353.913 1124.16 353.913 1124.16 336.562 1106.81 336.562 1106.81 353.913 1098.14 353.913 1098.14 336.562 1080.79 336.562 1080.79 353.913 1072.11 353.913 1072.11 336.562 1071.52 336.562C1067.06 336.562 1063.44 332.936 1063.44 328.477L1063.44 327.888 1050.43 327.888 1050.43 319.212 1063.44 319.212 1063.44 301.863 1050.43 301.863 1050.43 293.188 1063.44 293.188 1063.44 275.837 1050.43 275.837 1050.43 267.163 1063.44 267.163 1063.44 254.15 1050.43 254.15 1050.43 245.475 1063.44 245.475 1063.44 228.125 1050.43 228.125 1050.43 219.45 1063.44 219.45 1063.44 218.86C1063.44 214.401 1067.06 210.775 1071.52 210.775L1072.11 210.775 1072.11 193.425 1080.79 193.425 1080.79 210.775 1098.14 210.775 1098.14 193.425 1106.81 193.425 1106.81 210.775 1124.16 210.775 1124.16 193.425 1132.84 193.425 1132.84 210.775 1145.85 210.775 1145.85 193.425 1154.53 193.425 1154.53 210.775 1171.88 210.775 1171.88 193.425 1180.55 193.425 1180.55 210.775 1181.14 210.775C1185.6 210.775 1189.22 214.401 1189.22 218.86L1189.22 219.45ZM1132.84 383.737C1132.84 384.032 1132.59 384.275 1132.3 384.275L1016.26 384.275C1015.97 384.275 1015.72 384.032 1015.72 383.737L1015.72 267.7C1015.72 267.405 1015.97 267.163 1016.26 267.163L1041.75 267.163 1041.75 258.488 1016.26 258.488C1011.18 258.488 1007.05 262.621 1007.05 267.7L1007.05 383.737C1007.05 388.816 1011.18 392.95 1016.26 392.95L1132.3 392.95C1137.38 392.95 1141.51 388.816 1141.51 383.737L1141.51 362.587 1132.84 362.587 1132.84 383.737ZM1249.95 159.263 1249.95 275.3C1249.95 280.379 1245.82 284.513 1240.74 284.513L1215.25 284.513 1215.25 275.837 1240.74 275.837C1241.03 275.837 1241.28 275.595 1241.28 275.3L1241.28 159.263C1241.28 158.968 1241.03 158.725 1240.74 158.725L1124.7 158.725C1124.41 158.725 1124.16 158.968 1124.16 159.263L1124.16 184.75 1115.49 184.75 1115.49 159.263C1115.49 154.184 1119.62 150.05 1124.7 150.05L1240.74 150.05C1245.82 150.05 1249.95 154.184 1249.95 159.263Z" fill="#FFFFFF" fill-rule="evenodd" fill-opacity="1"/></g></g></g></g></g></svg>