<svg width="333" height="332" xmlns="http://www.w3.org/2000/svg" xmlns:xlink="http://www.w3.org/1999/xlink" xml:space="preserve" overflow="hidden"><g transform="translate(-313 -124)"><g><g><g><g><path d="M314 124 646 124 646 456 314 456Z" fill="#C925D1" fill-rule="evenodd" fill-opacity="1"/><path d="M377.968 182.1 416.534 220.666 410.666 226.534 372.1 187.968 372.1 219.45 363.8 219.45 363.8 177.95C363.8 175.659 365.655 173.8 367.95 173.8L409.45 173.8 409.45 182.1 377.968 182.1ZM596.2 177.95 596.2 219.45 587.9 219.45 587.9 187.968 549.334 226.534 543.466 220.666 582.032 182.1 550.55 182.1 550.55 173.8 592.05 173.8C594.345 173.8 596.2 175.659 596.2 177.95ZM587.9 360.55 596.2 360.55 596.2 402.05C596.2 404.341 594.345 406.2 592.05 406.2L550.55 406.2 550.55 397.9 582.032 397.9 543.466 359.334 549.334 353.466 587.9 392.032 587.9 360.55ZM585.825 286.734C585.825 272.96 569.922 259.352 543.287 250.334L545.948 242.474C576.562 252.837 594.125 268.968 594.125 286.734 594.125 304.504 576.562 320.639 545.943 330.998L543.283 323.134C569.922 314.12 585.825 300.516 585.825 286.734ZM374.407 286.734C374.407 299.931 389.293 313.178 414.231 322.175L411.413 329.981C382.62 319.594 366.107 303.832 366.107 286.734 366.107 269.64 382.62 253.878 411.413 243.487L414.231 251.293C389.293 260.294 374.407 273.541 374.407 286.734ZM416.534 359.334 377.968 397.9 409.45 397.9 409.45 406.2 367.95 406.2C365.655 406.2 363.8 404.341 363.8 402.05L363.8 360.55 372.1 360.55 372.1 392.032 410.666 353.466 416.534 359.334ZM480 253.837C450.344 253.837 434.35 246.176 434.35 243.047 434.35 239.914 450.344 232.257 480 232.257 509.652 232.257 525.65 239.914 525.65 243.047 525.65 246.176 509.652 253.837 480 253.837ZM480.12 285.979C451.726 285.979 434.35 278.222 434.35 274.002L434.35 253.829C444.571 259.468 462.703 262.137 480 262.137 497.297 262.137 515.429 259.468 525.65 253.829L525.65 274.002C525.65 278.226 508.365 285.979 480.12 285.979ZM480.12 317.668C451.726 317.668 434.35 309.912 434.35 305.691L434.35 285.277C444.439 291.208 462.329 294.279 480.12 294.279 497.812 294.279 515.599 291.212 525.65 285.298L525.65 305.691C525.65 309.916 508.365 317.668 480.12 317.668ZM480 346.1C450.464 346.1 434.35 338.161 434.35 334.081L434.35 316.967C444.439 322.897 462.329 325.968 480.12 325.968 497.812 325.968 515.599 322.905 525.65 316.987L525.65 334.081C525.65 338.161 509.536 346.1 480 346.1ZM480 223.957C454.017 223.957 426.05 229.929 426.05 243.047L426.05 334.081C426.05 347.419 453.191 354.4 480 354.4 506.809 354.4 533.95 347.419 533.95 334.081L533.95 243.047C533.95 229.929 505.983 223.957 480 223.957Z" fill="#FFFFFF" fill-rule="evenodd" fill-opacity="1"/></g></g></g></g></g></svg>