<svg width="349" height="349" xmlns="http://www.w3.org/2000/svg" xmlns:xlink="http://www.w3.org/1999/xlink" xml:space="preserve" overflow="hidden"><defs><clipPath id="clip0"><rect x="313" y="124" width="349" height="349"/></clipPath><clipPath id="clip1"><rect x="313" y="124" width="349" height="349"/></clipPath><clipPath id="clip2"><rect x="314" y="124" width="348" height="349"/></clipPath><clipPath id="clip3"><rect x="314" y="124" width="348" height="349"/></clipPath><clipPath id="clip4"><rect x="314" y="124" width="348" height="349"/></clipPath></defs><g clip-path="url(#clip0)" transform="translate(-313 -124)"><g clip-path="url(#clip1)"><g clip-path="url(#clip2)"><g clip-path="url(#clip3)"><g clip-path="url(#clip4)"><path d="M0 0 348 0 348 348 0 348Z" fill="#8C4FFF" fill-rule="evenodd" fill-opacity="1" transform="matrix(1 0 0 1.00287 314 124)"/><path d="M265.35 179.967 241.425 170.397 241.425 257.184C248.411 256.488 254.044 254.191 258.046 250.128 265.441 242.611 265.354 231.593 265.35 231.484L265.35 179.967ZM232.725 257.24 232.725 170.397 208.8 179.967 208.8 231.397C208.83 232.297 209.818 254.7 232.725 257.24ZM274.05 231.397C274.063 231.888 274.281 245.956 264.328 256.148 257.82 262.817 248.646 266.197 237.075 266.197 208.482 266.197 200.383 243.499 200.1 231.501L200.1 177.022C200.1 175.243 201.183 173.642 202.836 172.981L235.461 159.931C236.496 159.518 237.654 159.518 238.689 159.931L271.314 172.981C272.967 173.642 274.05 175.243 274.05 177.022L274.05 231.397ZM287.104 222.845 287.1 164.742 237.075 144.732 187.05 164.742 187.05 222.697C187.041 223.093 186.463 249.789 202.423 266.214 210.827 274.862 222.485 279.247 237.075 279.247 251.765 279.247 263.479 274.832 271.892 266.127 287.831 249.632 287.113 223.11 287.104 222.845ZM278.148 272.169C268.034 282.64 254.214 287.947 237.075 287.947 220.019 287.947 206.247 282.657 196.141 272.226 177.615 253.116 178.311 223.797 178.35 222.562L178.35 161.797C178.35 160.018 179.433 158.417 181.086 157.756L235.461 136.006C236.496 135.593 237.654 135.593 238.689 136.006L293.064 157.756C294.717 158.417 295.8 160.018 295.8 161.797L295.8 222.697C295.839 223.784 296.622 253.051 278.148 272.169ZM100.289 205.297 165.3 205.297 165.3 213.997 100.289 213.997C73.8499 213.997 53.6659 196.371 52.3044 172.085 52.2087 171.093 52.2 169.936 52.2 168.779 52.2 138.899 73.093 127.897 85.2774 124.026 85.1904 122.63 85.1469 121.216 85.1469 119.793 85.1469 96.0728 102.068 71.256 124.501 62.0688 150.845 51.2808 178.62 56.5052 198.773 76.0193 205.564 82.6356 210.74 89.7001 214.485 97.4822 219.732 92.9799 226.065 90.5613 232.851 90.5613 247.228 90.5613 262.436 101.845 265.05 123.46 274.546 125.853 286.465 130.934 294.878 141.722L288.022 147.072C280.271 137.128 268.573 132.987 260.13 131.256 258.194 130.864 256.772 129.22 256.659 127.254 255.523 108.022 243.522 99.2613 232.851 99.2613 226.491 99.2613 220.854 102.263 216.543 107.94 215.582 109.21 214.016 109.867 212.432 109.614 210.862 109.375 209.539 108.301 208.996 106.809 205.659 97.7171 200.335 89.687 192.714 82.2615 175.122 65.2356 150.841 60.6899 127.799 70.1207 108.445 78.0464 93.8469 99.4005 93.8469 119.793 93.8469 122.147 93.9817 124.474 94.2558 126.705 94.5211 128.885 93.1117 130.921 90.9803 131.451 79.7486 134.231 60.9 142.783 60.9 168.779 60.9 169.657 60.8913 170.54 60.9783 171.423 62.0832 191.12 78.6132 205.297 100.289 205.297Z" fill="#FFFFFF" fill-rule="evenodd" fill-opacity="1" transform="matrix(1 0 0 1.00287 314 124)"/></g></g></g></g></g></svg>